<?xml version="1.0" standalone="no"?>
<!DOCTYPE svg PUBLIC "-//W3C//DTD SVG 20010904//EN"
 "http://www.w3.org/TR/2001/REC-SVG-20010904/DTD/svg10.dtd">
<svg version="1.0" xmlns="http://www.w3.org/2000/svg"
 width="391.000000pt" height="391.000000pt" viewBox="0 0 391.000000 391.000000"
 preserveAspectRatio="xMidYMid meet">
<metadata>
Created by potrace 1.14, written by Peter Selinger 2001-2017
</metadata>
<g transform="translate(0.000000,391.000000) scale(0.100000,-0.100000)"
fill="#000000" stroke="none">
<path d="M1750 3900 c-116 -16 -148 -22 -225 -39 -309 -71 -611 -222 -834
-415 -48 -41 -199 -192 -236 -236 -146 -171 -283 -418 -355 -641 -45 -138 -46
-144 -77 -314 -22 -124 -23 -464 0 -595 26 -154 31 -176 71 -300 137 -431 423
-802 811 -1054 88 -57 282 -155 340 -172 6 -2 49 -17 97 -33 48 -17 118 -38
155 -46 89 -21 89 -21 153 -30 30 -4 64 -10 75 -12 11 -3 99 -6 195 -8 157 -3
296 7 395 29 39 8 74 16 102 22 12 2 33 8 45 13 13 5 25 9 28 9 42 1 266 89
375 147 67 36 225 133 235 145 3 3 33 27 68 53 260 196 512 544 623 863 86
246 114 413 113 674 0 204 -4 239 -50 460 -7 34 -44 160 -54 185 -5 11 -23 56
-41 100 -63 157 -202 388 -301 503 -169 194 -377 361 -593 477 -125 66 -355
153 -454 170 -19 3 -37 8 -41 10 -4 2 -38 9 -76 15 -38 6 -80 13 -94 16 -42 9
-391 12 -450 4z"/>
</g>
</svg>
